<svg width="20" height="146" viewBox="0 0 20 146" fill="none" xmlns="http://www.w3.org/2000/svg">
<path d="M10 0C6.13 0 3 3.13 3 7C3 11.17 7.42 16.92 9.24 19.11C9.64 19.59 10.37 19.59 10.77 19.11C12.58 16.92 17 11.17 17 7C17 3.13 13.87 0 10 0ZM10 9.5C9.33696 9.5 8.70107 9.23661 8.23223 8.76777C7.76339 8.29893 7.5 7.66304 7.5 7C7.5 6.33696 7.76339 5.70107 8.23223 5.23223C8.70107 4.76339 9.33696 4.5 10 4.5C10.663 4.5 11.2989 4.76339 11.7678 5.23223C12.2366 5.70107 12.5 6.33696 12.5 7C12.5 7.66304 12.2366 8.29893 11.7678 8.76777C11.2989 9.23661 10.663 9.5 10 9.5Z" fill="#BDBDBD"/>
<path d="M16.6666 132.333H3.33329C2.41663 132.333 1.67496 133.083 1.67496 134L1.66663 144C1.66663 144.917 2.41663 145.667 3.33329 145.667H16.6666C17.5833 145.667 18.3333 144.917 18.3333 144V134C18.3333 133.083 17.5833 132.333 16.6666 132.333ZM16.3333 135.875L10.4416 139.558C10.175 139.725 9.82496 139.725 9.55829 139.558L3.66663 135.875C3.58307 135.828 3.50989 135.765 3.45153 135.689C3.39317 135.613 3.35084 135.526 3.32711 135.433C3.30337 135.34 3.29871 135.243 3.31342 135.149C3.32813 135.054 3.36191 134.963 3.41269 134.882C3.46348 134.801 3.53023 134.731 3.6089 134.676C3.68757 134.621 3.77652 134.583 3.87037 134.564C3.96423 134.544 4.06103 134.544 4.15492 134.563C4.24881 134.583 4.33785 134.621 4.41663 134.675L9.99996 138.167L15.5833 134.675C15.6621 134.621 15.7511 134.583 15.845 134.563C15.9389 134.544 16.0357 134.544 16.1295 134.564C16.2234 134.583 16.3124 134.621 16.391 134.676C16.4697 134.731 16.5364 134.801 16.5872 134.882C16.638 134.963 16.6718 135.054 16.6865 135.149C16.7012 135.243 16.6966 135.34 16.6728 135.433C16.6491 135.526 16.6067 135.613 16.5484 135.689C16.49 135.765 16.4169 135.828 16.3333 135.875Z" fill="#BDBDBD"/>
<path d="M17.1666 54.5408H19.0833C19.0833 49.6245 15.3717 45.9167 10.4487 45.9167V47.8334C14.3415 47.8334 17.1666 50.6538 17.1666 54.5408Z" fill="#BDBDBD"/>
<path d="M10.4584 51.6666C12.4737 51.6666 13.3334 52.5262 13.3334 54.5416H15.25C15.25 51.4509 13.549 49.7499 10.4584 49.7499V51.6666ZM13.7378 56.8828C13.5536 56.7154 13.3116 56.6261 13.0629 56.6338C12.8142 56.6415 12.5782 56.7456 12.4047 56.924L10.1114 59.2824C9.55944 59.177 8.44969 58.8311 7.30736 57.6916C6.16503 56.5483 5.81907 55.4357 5.71653 54.8875L8.07307 52.5933C8.25171 52.4199 8.35591 52.1839 8.3636 51.9351C8.37129 51.6863 8.28187 51.4443 8.11428 51.2602L4.57323 47.3665C4.40557 47.1819 4.17254 47.0699 3.92363 47.0544C3.67473 47.0388 3.42956 47.1209 3.24019 47.2832L1.16061 49.0666C0.994924 49.2329 0.896032 49.4542 0.882693 49.6886C0.868318 49.9282 0.594235 55.6034 4.9949 60.006C8.83398 63.8441 13.6429 64.1249 14.9673 64.1249C15.1609 64.1249 15.2797 64.1192 15.3114 64.1172C15.5457 64.1041 15.7669 64.0048 15.9324 63.8384L17.7149 61.7578C17.8773 61.5686 17.9595 61.3235 17.9441 61.0746C17.9287 60.8257 17.8169 60.5926 17.6324 60.4248L13.7378 56.8828Z" fill="#BDBDBD"/>
</svg>
